<svg xmlns="http://www.w3.org/2000/svg" viewBox="0 0 960 343" width="960" height="343" role="img" aria-labelledby="t d">
<title id="t">Battery site plan: manual_review</title>
<desc id="d">The battery fits 2 ft 9 in right of the meter with a 1 ft 6 in cable run; a person must confirm under these rules.</desc>
<style>
.paper{fill:#F2F4F3}
.ink{stroke:#1D262B;fill:none}
.wall{stroke:#1D262B;stroke-width:5;stroke-linecap:square;fill:none}
.poche{fill:url(#poche)}
.gap{stroke:#1D262B;stroke-width:1.5;stroke-dasharray:4 5;fill:none}
.lawn{fill:#D3E4C8}.mulch{fill:#DDCDB4}.gravel{fill:#D8DAD6}.concrete{fill:#DCDEDC}
.deck{fill:#C9B08C}.drive{fill:#AEB4B9}
.fog{fill:url(#fog)}.fog-line{stroke:#1D262B;stroke-opacity:.22;stroke-width:2}
.poche-line{stroke:#1D262B;stroke-opacity:.35;stroke-width:1}
.opening{stroke:#F2F4F3;stroke-width:5;fill:none}
.opening-mark{stroke:#1D262B;stroke-width:1.2;fill:none}
.object{fill:#FFFFFF;stroke:#1D262B;stroke-width:1.2}
.gas{fill:#F2C200;stroke:#1D262B;stroke-width:1.2}
.gas-ring{fill:none;stroke:#B89200;stroke-width:1.2;stroke-dasharray:3 4}
.pool{fill:#BFE0E8;stroke:#1D262B;stroke-width:1}
.meter-area{fill:#2F6FDB;fill-opacity:.16;stroke:#2F6FDB;stroke-width:1}
.meter{fill:#2F6FDB;stroke:#FFFFFF;stroke-width:2}
.sweep-pass{stroke:#1D262B;stroke-width:3;stroke-opacity:.55}
.sweep-unsure{stroke:#1D262B;stroke-width:3;stroke-opacity:.3;stroke-dasharray:2 3}
.cable{stroke:#7B3FC4;stroke-width:4;stroke-linecap:round;stroke-linejoin:round;fill:none}
.battery{fill:#D7263D;stroke:#7A0F1E;stroke-width:1.5}
.battery.unsure{fill:#D7263D;fill-opacity:.35;stroke-dasharray:5 3}
.battery-ring{fill:none;stroke:#D7263D;stroke-width:1.3;stroke-dasharray:6 4}
.dim{stroke:#1D262B;stroke-width:1}
text{font-family:ui-monospace,"SF Mono",Menlo,Consolas,monospace;fill:#1D262B}
.label{font-size:12px}.small{font-size:11px;fill:#4A565C}
.dim-text{font-size:12px;font-weight:600;paint-order:stroke;stroke:#F2F4F3;stroke-width:4px}
.cable-text{font-size:12px;font-weight:600;fill:#5E2A9E;paint-order:stroke;stroke:#F2F4F3;stroke-width:4px}
@media (prefers-color-scheme:dark){
.paper{fill:#141A1D}.wall,.ink,.gap,.opening-mark,.dim{stroke:#E4E9EB}
.opening{stroke:#141A1D}text{fill:#E4E9EB}.small{fill:#A9B4B9}
.dim-text,.cable-text{stroke:#141A1D}.cable-text{fill:#C9A8F2}
.lawn{fill:#2C3B28}.mulch{fill:#3A3226}.gravel,.concrete{fill:#30363A}.deck{fill:#4A3C29}
.drive{fill:#40474C}.object{fill:#20282C;stroke:#E4E9EB}.pool{fill:#1F3D45}
.sweep-pass,.sweep-unsure{stroke:#E4E9EB}.fog-line,.poche-line{stroke:#E4E9EB}}
</style><defs>
<pattern id="fog" width="8" height="8" patternUnits="userSpaceOnUse"
 patternTransform="rotate(45)">
<line class="fog-line" x1="0" y1="0" x2="0" y2="8"/></pattern>
<pattern id="poche" width="6" height="6" patternUnits="userSpaceOnUse"
 patternTransform="rotate(-45)">
<line class="poche-line" x1="0" y1="0" x2="0" y2="6"/></pattern>
</defs>
<rect class="paper" width="960" height="343"/>
<path class="mulch" d="M28.0,124.9 L28.0,189.4 L932.0,189.4 L932.0,124.9 L28.0,124.9 Z"/>
<path class="lawn" d="M28.0,189.4 L28.0,251.3 L932.0,251.3 L932.0,189.4 L28.0,189.4 Z"/>
<path class="fog" d="M124.9,124.9 L28.0,124.9 L28.0,251.3 L124.9,251.3 L124.9,124.9 Z"/>
<path class="meter-area" d="M427.5,173.3 L467.9,173.3 L467.9,124.9 L427.5,124.9 L427.5,173.3 Z"/>
<path class="poche" d="M124.9,124.9 L835.1,124.9 L835.1,110.3 L124.9,110.3 L124.9,124.9 Z"/>
<path class="sweep-unsure" d="M124.9,117.6 L167.7,117.6"/>
<path class="sweep-unsure" d="M126.5,117.6 L176.5,117.6"/>
<path class="sweep-unsure" d="M465.4,117.6 L511.6,117.6"/>
<path class="sweep-pass" d="M471.3,117.6 L727.6,117.6"/>
<path class="sweep-unsure" d="M686.6,117.6 L768.6,117.6"/>
<path class="sweep-unsure" d="M728.2,117.6 L815.5,117.6"/>
<path class="wall" d="M124.9,124.9 L835.1,124.9"/>
<path class="gas-ring" d="M302.4,141.0 L302.7,145.7 L303.4,150.4 L304.5,155.1 L306.1,159.5 L308.1,163.8 L310.6,167.9 L313.4,171.7 L316.6,175.2 L320.1,178.4 L324.0,181.3 L328.0,183.7 L332.3,185.7 L336.8,187.3 L341.4,188.5 L346.1,189.2 L350.9,189.4 L367.0,189.4 L371.7,189.2 L376.4,188.5 L381.1,187.3 L385.5,185.7 L389.8,183.7 L393.9,181.3 L397.7,178.4 L401.2,175.2 L404.4,171.7 L407.3,167.9 L409.7,163.8 L411.7,159.5 L413.3,155.1 L414.5,150.4 L415.2,145.7 L415.4,141.0 L415.4,124.9 L415.2,120.1 L414.5,115.4 L413.3,110.8 L411.7,106.3 L409.7,102.0 L407.3,98.0 L404.4,94.1 L401.2,90.6 L397.7,87.4 L393.9,84.6 L389.8,82.1 L385.5,80.1 L381.1,78.5 L376.4,77.4 L371.7,76.7 L367.0,76.4 L350.9,76.4 L346.1,76.7 L341.4,77.4 L336.8,78.5 L332.3,80.1 L328.0,82.1 L324.0,84.6 L320.1,87.4 L316.6,90.6 L313.4,94.1 L310.6,98.0 L308.1,102.0 L306.1,106.3 L304.5,110.8 L303.4,115.4 L302.7,120.1 L302.4,124.9 L302.4,141.0 Z"/>
<path class="gas" d="M350.9,141.0 L367.0,141.0 L367.0,124.9 L350.9,124.9 L350.9,141.0 Z"/>
<text class="label" x="358.9" y="99.0" text-anchor="middle" dominant-baseline="middle">Gas</text>
<path class="opening" d="M221.7,124.9 L270.1,124.9"/>
<path class="opening-mark" d="M221.7,120.8 L270.1,120.8"/>
<path class="opening-mark" d="M221.7,128.9 L270.1,128.9"/>
<text class="small" x="245.9" y="99.0" text-anchor="middle" dominant-baseline="middle">Window</text>
<path class="cable" d="M447.7,124.9 L471.3,124.9"/>
<text class="cable-text" x="459.5" y="86.1" text-anchor="middle" dominant-baseline="middle">Cable 1 ft 5 in</text>
<path class="battery-ring" d="M422.8,202.9 L561.4,202.9 L561.4,76.4 L422.8,76.4 L422.8,202.9 Z"/>
<path class="battery" d="M471.3,154.5 L513.0,154.5 L513.0,124.9 L471.3,124.9 L471.3,154.5 Z"/>
<circle class="meter" cx="447.7" cy="124.9" r="7"/>
<text class="label" x="447.7" y="99.0" text-anchor="middle" dominant-baseline="middle">Meter</text>
<line class="ink" x1="28" y1="305.30951842857144" x2="108.7" y2="305.30951842857144" stroke-width="2"/>
<line class="ink" x1="28.0" y1="301.30951842857144" x2="28.0" y2="309.30951842857144"/>
<line class="ink" x1="68.4" y1="301.30951842857144" x2="68.4" y2="309.30951842857144"/>
<line class="ink" x1="108.7" y1="301.30951842857144" x2="108.7" y2="309.30951842857144"/>
<text class="small" x="116.7" y="309.30951842857144">5 ft</text>
<rect class="battery" x="172.71428571428572" y="298.30951842857144" width="18" height="14"/>
<text class="small" x="196.71428571428572" y="309.30951842857144">Battery</text>
<line class="cable" x1="255.11428571428573" y1="305.30951842857144" x2="273.11428571428576" y2="305.30951842857144"/>
<text class="small" x="279.11428571428576" y="309.30951842857144">Cable</text>
<rect class="meter-area" x="323.11428571428576" y="298.30951842857144" width="18" height="14"/>
<text class="small" x="347.11428571428576" y="309.30951842857144">Meter working space</text>
<rect class="gas" x="491.91428571428577" y="298.30951842857144" width="18" height="14"/>
<text class="small" x="515.9142857142858" y="309.30951842857144">Gas</text>
<rect class="fog" x="545.5142857142857" y="298.30951842857144" width="18" height="14"/>
<text class="small" x="569.5142857142857" y="309.30951842857144">Not seen</text>
<text class="label" x="932" y="309.30951842857144" text-anchor="end" font-weight="600">Needs review</text>
</svg>